<svg width="20" height="24" viewBox="0 0 20 24" fill="none" xmlns="http://www.w3.org/2000/svg">
<path d="M14.1134 -7.05128e-06C12.7521 0.0918678 11.2952 0.901868 10.3934 1.99499C9.60398 2.95687 8.94211 4.36874 9.19336 5.83499C8.96836 5.76562 8.76398 5.75812 8.51836 5.66999C7.84898 5.43187 7.08398 5.17499 6.13336 5.17499C4.24523 5.17499 2.31211 6.29812 1.09336 8.17499C-0.680392 10.9012 -0.324142 15.6994 2.36836 19.8C2.84273 20.52 3.39586 21.3056 4.07836 21.93C4.76086 22.5544 5.58586 23.0306 6.55336 23.04C7.38023 23.0494 7.95586 22.7737 8.47336 22.545C8.99086 22.3162 9.47273 22.1137 10.3784 22.11C10.384 22.11 10.3877 22.11 10.3934 22.11C11.2952 22.1025 11.7621 22.3012 12.2684 22.53C12.7746 22.7587 13.3446 23.0475 14.1734 23.04C15.1596 23.0325 15.9977 22.4925 16.6934 21.825C17.389 21.1575 17.9609 20.3381 18.4334 19.62C19.1102 18.5887 19.3821 18.0262 19.9034 16.875C19.9577 16.755 19.9596 16.6162 19.9071 16.4944C19.8565 16.3725 19.7571 16.2769 19.6334 16.23C17.9271 15.585 16.954 14.0756 16.8134 12.48C16.6727 10.8844 17.3477 9.24187 19.0484 8.30999C19.174 8.24249 19.2621 8.12437 19.2921 7.98562C19.3202 7.84687 19.2865 7.70062 19.1984 7.58999C17.9777 6.07312 16.2602 5.17499 14.5784 5.17499C13.5059 5.17499 12.7184 5.42812 12.0734 5.66999C11.9665 5.71124 11.8877 5.70749 11.7884 5.74499C12.4427 5.39999 13.0202 4.92187 13.4534 4.36499C14.2409 3.35437 14.8484 1.91624 14.6234 0.404993C14.5859 0.157493 14.3627 -0.0187571 14.1134 -7.05128e-06ZM13.6034 1.13999C13.5715 2.10937 13.2396 3.05812 12.6884 3.76499C12.1109 4.50749 11.1396 5.02124 10.1984 5.17499C10.2152 4.24312 10.5827 3.27749 11.1434 2.59499C11.7321 1.88249 12.7071 1.36874 13.6034 1.13999ZM6.13336 6.13499C6.55336 6.13499 7.52836 6.33562 8.18836 6.56999C8.84836 6.80437 9.54398 7.07999 10.3634 7.07999C11.164 7.07999 11.7977 6.80249 12.4184 6.56999C13.039 6.33749 13.6577 6.13499 14.5784 6.13499C15.7802 6.13499 17.0796 6.75937 18.1034 7.84499C16.4646 9.00187 15.6977 10.8056 15.8534 12.555C16.009 14.3231 17.074 16.0012 18.8234 16.875C18.8209 16.8805 18.8184 16.8859 18.8159 16.8913C18.4413 17.7072 18.1915 18.2512 17.6384 19.095C17.179 19.7944 16.6334 20.5594 16.0334 21.135C15.4334 21.7106 14.7977 22.0744 14.1584 22.08C13.5415 22.0856 13.1909 21.9019 12.6584 21.66C12.1259 21.4181 11.4377 21.1406 10.3784 21.15C9.32086 21.1556 8.62336 21.4219 8.08336 21.66C7.54336 21.8981 7.18898 22.0856 6.56836 22.08C5.91211 22.0744 5.30273 21.7556 4.72336 21.225C4.14398 20.6944 3.62086 19.9706 3.16336 19.275C0.643358 15.435 0.440858 10.9237 1.88836 8.69999C2.94961 7.06687 5.71336 6.13499 6.13336 6.13499Z" fill="black"/>
<path d="M6.13336 6.13499C6.55336 6.13499 7.52836 6.33562 8.18836 6.56999C8.84836 6.80437 9.54398 7.07999 10.3634 7.07999C11.164 7.07999 11.7977 6.80249 12.4184 6.56999C13.039 6.33749 13.6577 6.13499 14.5784 6.13499C15.7802 6.13499 17.0796 6.75937 18.1034 7.84499C16.4646 9.00187 15.6977 10.8056 15.8534 12.555C16.009 14.3231 17.074 16.0012 18.8234 16.875L18.8159 16.8913C18.4413 17.7072 18.1915 18.2512 17.6384 19.095C17.179 19.7944 16.6334 20.5594 16.0334 21.135C15.4334 21.7106 14.7977 22.0744 14.1584 22.08C13.5415 22.0856 13.1909 21.9019 12.6584 21.66C12.1259 21.4181 11.4377 21.1406 10.3784 21.15C9.32086 21.1556 8.62336 21.4219 8.08336 21.66C7.54336 21.8981 7.18898 22.0856 6.56836 22.08C5.91211 22.0744 5.30273 21.7556 4.72336 21.225C4.14398 20.6944 3.62086 19.9706 3.16336 19.275C0.643358 15.435 0.440858 10.9237 1.88836 8.69999C2.94961 7.06687 5.71336 6.13499 6.13336 6.13499Z" fill="black"/>
<path d="M13.6034 1.13999C13.5715 2.10937 13.2396 3.05812 12.6884 3.76499C12.1109 4.50749 11.1396 5.02124 10.1984 5.17499C10.2152 4.24312 10.5827 3.27749 11.1434 2.59499C11.7321 1.88249 12.7071 1.36874 13.6034 1.13999Z" fill="black"/>
</svg>
